# xmcd CD database file
#
# Track frame offsets:
#	150
#	27203
#	42928
#	61239
#	91021
#	110174
#	136202
#	168074
#	184922
#	223930
#	251473
#
# Disc length: 3720 seconds
#
# Revision: 0
# Processed by: cddbd v1.5.2PL0 Copyright (c) Steve Scherf et al.
# Submitted via: CDex 1.51
#
DISCID=920e860b
DTITLE=Van Morrison - Wavelength
DYEAR=2008
DGENRE=Blues
TTITLE0=Kingdom Hall (2007 Remastered)
TTITLE1=Checkin' It Out
TTITLE2=Natalia
TTITLE3=Venice U.S.A.
TTITLE4=Lifetimes
TTITLE5=Wavelength (2007 Remastered)
TTITLE6=Santa Fe - Beautiful Obsession
TTITLE7=Hungry For Your Love
TTITLE8=Take It Where You Find It
TTITLE9=Kingdom Hall (Previously Unreleased Bonus Track)
TTITLE10=Wavelength (Previously Unreleased Bonus Track)
EXTD=YEAR: 2008
EXTT0=
EXTT1=
EXTT2=
EXTT3=
EXTT4=
EXTT5=
EXTT6=
EXTT7=
EXTT8=
EXTT9=
EXTT10=
PLAYORDER=
